HIERARCHY
ROOT Hips
{
	OFFSET 0.00000 0.00000 0.00000
	CHANNELS 6 Xposition Yposition Zposition Zrotation Yrotation Xrotation 
	JOINT LHipJoint
	{
		OFFSET 0 0 0
		CHANNELS 3 Zrotation Yrotation Xrotation
		JOINT LeftHip
		{
			OFFSET 1.28366 -1.58472 0.87544
			CHANNELS 3 Zrotation Yrotation Xrotation
			JOINT LeftKnee
			{
				OFFSET 2.18587 -6.00562 0.00000
				CHANNELS 3 Zrotation Yrotation Xrotation
				JOINT LeftAnkle
				{
					OFFSET 2.39085 -6.56880 0.00000
					CHANNELS 3 Zrotation Yrotation Xrotation
					JOINT LeftToe
					{
						OFFSET 0.12003 -0.32979 2.03101
						CHANNELS 3 Zrotation Yrotation Xrotation
						End Site
						{
							OFFSET 0.00000 -0.00000 1.04074
						}
					}
				}
			}
		}
	}
	JOINT RHipJoint
	{
		OFFSET 0 0 0
		CHANNELS 3 Zrotation Yrotation Xrotation
		JOINT RightHip
		{
			OFFSET -1.21795 -1.58472 0.87544
			CHANNELS 3 Zrotation Yrotation Xrotation
			JOINT RightKnee
			{
				OFFSET -2.22714 -6.11902 0.00000
				CHANNELS 3 Zrotation Yrotation Xrotation
				JOINT RightAnkle
				{
					OFFSET -2.40306 -6.60235 0.00000
					CHANNELS 3 Zrotation Yrotation Xrotation
					JOINT RightToe
					{
						OFFSET -0.15519 -0.42640 1.91430
						CHANNELS 3 Zrotation Yrotation Xrotation
						End Site
						{
							OFFSET -0.00000 -0.00000 0.99082
						}
					}
				}
			}
		}
	}
	JOINT lowerback
	{
		OFFSET 0 0 0
		CHANNELS 3 Zrotation Yrotation Xrotation
		JOINT Chest
		{
			OFFSET 0.01180 1.76430 -0.06387
			CHANNELS 3 Zrotation Yrotation Xrotation
			JOINT Chest2
			{
				OFFSET -0.00388 1.74651 0.09536
				CHANNELS 3 Zrotation Yrotation Xrotation
				JOINT lowerneck
				{
					OFFSET 0 0 0
					CHANNELS 3 Zrotation Yrotation Xrotation
					JOINT Neck
					{
						OFFSET 0.04111 1.46174 0.14397
						CHANNELS 3 Zrotation Yrotation Xrotation
						JOINT Head
						{
							OFFSET 0.00502 1.44580 -0.31711
							CHANNELS 3 Zrotation Yrotation Xrotation
							End Site
							{
								OFFSET -0.00395 1.49251 -0.12327
							}
						}
					}
				}
				JOINT LeftCollar
				{
					OFFSET 0 0 0
					CHANNELS 3 Zrotation Yrotation Xrotation
					JOINT LeftShoulder
					{
						OFFSET 2.70917 1.34870 -0.15417
CHANNELS 3 Zrotation Xrotation Yrotation
						JOINT LeftElbow
						{
OFFSET 0 -4.466100 -0.000000
CHANNELS 3 Zrotation Xrotation Yrotation
							JOINT LeftWrist
							{
OFFSET 0 -3.414140 0.000000
CHANNELS 3 Zrotation Xrotation Yrotation
								JOINT lhand
								{
									OFFSET 0 0 0
CHANNELS 3 Zrotation Xrotation Yrotation
									JOINT LFingers
									{
OFFSET 0 -0.328300 0.000000
CHANNELS 3 Zrotation Xrotation Yrotation
										End Site
										{
OFFSET 0 -0.264680 0.000000
										}
									}
								}
								JOINT LThumb
								{
OFFSET 0 0.000000 0.000000
CHANNELS 3 Zrotation Xrotation Yrotation
									End Site
									{
OFFSET 0 -0.268720 0.268720
									}
								}
							}
						}
					}
				}
				JOINT RightCollar
				{
					OFFSET 0 0 0
					CHANNELS 3 Zrotation Yrotation Xrotation
					JOINT RightShoulder
					{
						OFFSET -3.06316 1.13725 -0.10883
CHANNELS 3 Zrotation Xrotation Yrotation
						JOINT RightElbow
						{
OFFSET 0 -4.404310 0.000000
CHANNELS 3 Zrotation Xrotation Yrotation
							JOINT RightWrist
							{
OFFSET 0 -3.046880 0.000000
CHANNELS 3 Zrotation Xrotation Yrotation
								JOINT rhand
								{
									OFFSET 0 0 0
CHANNELS 3 Zrotation Xrotation Yrotation
									JOINT RFingers
									{
OFFSET 0 -0.500490 0.000000
CHANNELS 3 Zrotation Xrotation Yrotation
										End Site
										{
OFFSET 0 -0.403510 0.000000
										}
									}
								}
								JOINT RThumb
								{
OFFSET 0 0.000000 0.000000
CHANNELS 3 Zrotation Xrotation Yrotation
									End Site
									{
OFFSET 0 -0.409670 0.409670
									}
								}
							}
						}
					}
				}
			}
		}
	}
}
MOTION
Frames: 7
Frame Time: 0.008333333333333333
5.406943 13.597825 -6.370868 -169.344267 -34.446942 -169.152711 0.000000 0.000000 0.000000 -1.649051 4.286248 -66.083919 14.235562 19.183903 72.922480 1.356892 2.104194 -22.855073 0.002427 -0.317154 -0.871364 0.000000 0.000000 0.000000 29.419925 -7.600606 -49.998539 -13.890642 -19.080290 71.870086 177.948371 24.472079 -28.956702 -0.005382 0.466288 -1.281275 -0.619747 10.690955 11.390921 -8.134493 12.747401 -11.938401 -12.477393 4.797029 -18.323714 8.468287 18.674280 -18.460758 -15.123929 24.306041 1.833829 -2.929012 10.917193 6.318584 0.000000 0.000000 0.000000 81.472046 14.631332 16.386155 23.707562 -34.851586 7.539552 77.128478 -21.849704 17.001102 0.000000 0.000000 0.000000 -7.125000 0.000000 0.000000 28.979162 -18.659654 41.153394 0.000000 0.000000 0.000000 -42.494314 28.568560 56.642791 -97.506055 -59.786051 -66.495805 -58.330418 -40.800963 -28.344255 0.000000 0.000000 0.000000 7.125000 0.000000 0.000000 -15.277787 -14.408336 -19.193078
5.279031 13.585753 -6.464493 -172.882821 -32.529285 -166.556247 0.000000 0.000000 0.000000 -7.457969 9.124511 -67.717894 14.264214 19.192185 73.009742 1.408506 -0.341477 -22.344493 0.005087 -0.460400 -1.265072 0.000000 0.000000 0.000000 24.198687 -6.203905 -52.335161 -15.687777 -19.547538 77.299771 178.192717 20.587617 -26.300815 -0.060747 1.590381 -4.374906 -2.271031 11.142514 11.256768 -9.496481 12.739248 -11.202130 -13.026036 4.949629 -17.365059 9.714544 18.698000 -18.084909 -15.536207 24.383503 3.101466 -3.139912 10.910804 6.888066 0.000000 0.000000 0.000000 64.650121 15.926333 1.920337 20.596548 -31.354296 5.838582 73.996709 -10.955199 15.914718 0.000000 0.000000 0.000000 -7.125000 0.000000 0.000000 27.252369 -11.834046 36.118665 0.000000 0.000000 0.000000 -43.059662 24.380172 56.116840 -96.145615 -59.856823 -65.319660 -57.517178 -42.318978 -25.880708 0.000000 0.000000 0.000000 7.125000 0.000000 0.000000 -15.631654 -10.759151 -18.921709
5.130919 13.580612 -6.521044 -173.740835 -31.845449 -166.611619 0.000000 0.000000 0.000000 -9.542929 11.351385 -67.313529 14.304600 19.203800 73.132500 1.570938 -1.803255 -23.192129 0.006303 0.511739 1.406281 0.000000 0.000000 0.000000 21.965305 -7.689091 -55.553868 -17.687925 -19.870607 83.225812 178.813638 15.868766 -20.971787 -0.017593 -0.745037 2.048088 -0.821254 10.571445 11.449555 -9.802214 12.252627 -10.480544 -13.886060 4.668937 -16.240495 10.151937 17.436031 -18.351493 -12.633022 22.603876 6.189579 -2.560769 10.193375 7.376512 0.000000 0.000000 0.000000 51.902107 15.199040 -18.698956 23.224467 -34.329427 7.266241 73.548770 -7.270886 14.759619 0.000000 0.000000 0.000000 -7.125000 0.000000 0.000000 27.258453 -9.071848 35.114082 0.000000 0.000000 0.000000 -41.810022 20.981531 54.911295 -97.493292 -59.786461 -66.484711 -54.750066 -43.043906 -21.186469 0.000000 0.000000 0.000000 7.125000 0.000000 0.000000 -15.513102 -2.828058 -16.876595
5.052112 13.589787 -6.606528 -174.673633 -30.281087 -167.037052 0.000000 0.000000 0.000000 -10.823374 13.245935 -65.807325 14.248447 19.187645 72.961925 1.670289 -1.356647 -24.053556 0.003713 0.390345 1.072684 0.000000 0.000000 0.000000 20.755325 -7.813272 -58.768996 -19.615720 -19.996217 88.876358 179.101269 14.969779 -18.608125 -0.417660 -4.147438 11.491852 -1.160668 9.638311 10.753036 -9.090011 11.112468 -9.581750 -12.268282 4.382840 -15.129954 9.603725 15.603958 -18.184380 -9.447738 20.040997 8.558115 -1.929662 9.193151 7.425176 0.000000 0.000000 0.000000 44.795795 11.983053 -46.858073 32.089002 -42.605069 12.805617 70.809388 -1.038945 10.437206 0.000000 0.000000 0.000000 -7.125000 0.000000 0.000000 27.058690 3.115476 29.054354 0.000000 0.000000 0.000000 -40.741450 17.926014 54.418324 -102.186619 -59.430706 -70.533688 -51.345084 -43.671150 -15.200073 0.000000 0.000000 0.000000 7.125000 0.000000 0.000000 -15.163432 7.129339 -13.664236
5.027122 13.604571 -6.742234 -175.198486 -26.193319 -168.933427 0.000000 0.000000 0.000000 -10.749810 16.689709 -62.231581 14.184627 19.169095 72.767499 1.775745 0.093055 -25.259563 0.000000 0.025821 0.070834 0.000000 0.000000 0.000000 20.913135 -3.861759 -58.159766 -19.750786 -19.998459 89.271391 178.849776 18.383753 -21.603668 -0.054264 -1.501086 4.128792 -2.701679 8.447259 10.156530 -7.707406 9.496252 -8.647623 -9.242123 3.970191 -14.424593 9.140210 13.771122 -18.434251 -4.943579 17.136322 11.906376 -0.828100 8.157660 7.831092 0.000000 0.000000 0.000000 41.399865 4.462403 -72.257287 51.899001 -53.727807 27.699553 64.861229 -3.394769 4.935312 0.000000 0.000000 0.000000 -7.125000 0.000000 0.000000 26.287580 18.888560 18.398964 0.000000 0.000000 0.000000 -40.611716 13.561065 56.789106 -107.085595 -58.867620 -74.740276 -46.915399 -40.864765 -8.259320 0.000000 0.000000 0.000000 7.125000 0.000000 0.000000 -14.035823 18.178558 -9.238053
5.048258 13.644736 -6.930091 -174.915506 -20.523515 -171.533382 0.000000 0.000000 0.000000 -8.648631 20.053398 -57.484149 14.245256 19.186733 72.952081 1.714601 2.573180 -25.777585 0.014336 0.763218 2.097514 0.000000 0.000000 0.000000 22.918839 3.455432 -51.449124 -15.493420 -19.502715 76.716735 179.024095 24.298577 -23.184629 -0.239746 -3.142696 8.676923 -4.434087 6.507161 9.110610 -5.885774 6.962760 -7.782289 -5.450658 3.138092 -13.495890 8.469177 12.065776 -18.853049 0.551847 13.937582 15.971503 0.700617 7.130211 8.599737 0.000000 0.000000 0.000000 36.180734 -6.459417 -82.622791 80.480553 -59.638246 51.766969 57.507928 -13.659410 -2.520152 0.000000 0.000000 0.000000 -7.125000 0.000000 0.000000 24.898681 33.699999 7.518632 0.000000 0.000000 0.000000 -40.711692 6.626914 61.756567 -109.443254 -58.522220 -76.754793 -43.080703 -37.592184 -1.041546 0.000000 0.000000 0.000000 7.125000 0.000000 0.000000 -12.749206 28.454722 -5.255668
5.064345 13.723836 -7.103408 -174.210871 -15.879824 -174.652870 0.000000 0.000000 0.000000 -4.687289 19.833123 -53.872062 15.561024 19.519685 76.920262 0.872525 7.698117 -22.044525 0.351859 3.796064 10.505421 0.000000 0.000000 0.000000 24.816875 7.294557 -43.226661 -13.256425 -18.872603 69.919985 179.096901 26.223352 -23.788676 -0.435503 -4.233584 11.734885 -5.465448 3.368760 8.946635 -3.642044 3.019860 -6.640193 -1.485329 1.561736 -12.397636 7.681438 10.676198 -19.106392 4.361276 11.141324 19.964656 1.835484 6.158763 9.674330 0.000000 0.000000 0.000000 31.199634 -18.852367 -78.535552 96.109860 -59.858296 65.288803 47.607192 -20.068786 -16.137473 0.000000 0.000000 0.000000 -7.125000 0.000000 0.000000 20.704466 51.978253 -3.644738 0.000000 0.000000 0.000000 -40.936176 -1.566900 66.970766 -110.284519 -58.386714 -77.471742 -40.436719 -37.321854 3.282792 0.000000 0.000000 0.000000 7.125000 0.000000 0.000000 -11.340776 34.117227 -3.080133
